<?xml version="1.0" standalone="no"?>
<!DOCTYPE svg PUBLIC "-//W3C//DTD SVG 20010904//EN"
 "http://www.w3.org/TR/2001/REC-SVG-20010904/DTD/svg10.dtd">
<svg version="1.0" xmlns="http://www.w3.org/2000/svg"
 width="700.000000pt" height="700.000000pt" viewBox="0 0 700.000000 700.000000"
 preserveAspectRatio="xMidYMid meet">
<metadata>
Created by potrace 1.14, written by Peter Selinger 2001-2017
</metadata>
<g transform="translate(0.000000,700.000000) scale(0.100000,-0.100000)"
fill="#000000" stroke="none">
<path d="M3150 6713 c-69 -8 -128 -18 -132 -21 -5 -6 -99 -254 -185 -492 -9
-25 -18 -46 -19 -48 -2 -3 -86 -27 -125 -37 -97 -22 -377 -133 -495 -197 l-71
-37 -94 45 c-52 26 -172 84 -267 130 l-173 84 -42 -28 c-64 -41 -223 -166
-302 -235 -125 -111 -335 -329 -335 -348 0 -10 67 -159 160 -355 32 -67 61
-131 64 -142 5 -14 -10 -47 -52 -113 -100 -159 -192 -348 -255 -524 -31 -85
-41 -118 -46 -142 -4 -25 -41 -41 -281 -124 -146 -50 -273 -93 -282 -96 -10
-3 -18 -9 -18 -13 0 -8 -14 -120 -25 -195 -18 -126 -23 -343 -11 -495 9 -135
13 -147 44 -158 67 -24 399 -144 412 -149 8 -4 35 -14 59 -22 l43 -16 29 -114
c58 -237 147 -464 262 -670 31 -55 57 -105 57 -110 0 -5 -54 -120 -120 -255
-66 -136 -120 -252 -120 -258 0 -19 143 -188 252 -297 104 -104 204 -196 289
-263 l46 -37 64 30 c35 17 84 40 109 51 25 11 79 36 120 55 243 113 230 109
261 85 89 -68 409 -220 583 -277 55 -18 205 -61 236 -69 22 -5 30 -19 57 -98
18 -51 52 -154 78 -228 58 -170 54 -159 55 -165 0 -3 6 -18 14 -34 14 -26 21
-29 88 -36 40 -3 98 -10 128 -13 139 -16 613 -4 631 16 4 4 32 77 63 162 31
85 61 164 65 175 5 11 22 56 38 100 l29 79 147 38 c262 65 446 135 671 251
l124 65 184 -90 c244 -120 325 -158 332 -158 6 0 106 72 132 95 7 6 31 26 55
45 101 80 353 327 385 375 13 20 10 31 -34 126 -27 57 -61 129 -75 159 -14 30
-45 98 -70 151 l-44 96 64 99 c160 247 286 553 357 866 7 30 -2 27 326 138
118 40 218 76 222 79 10 9 15 48 24 181 14 194 4 460 -21 577 -5 23 2 20 -320
138 -261 95 -236 78 -264 179 -30 112 -89 271 -140 381 -23 48 -41 88 -41 90
0 9 -126 225 -167 285 l-45 68 102 209 c56 114 111 227 122 250 l20 42 -22 28
c-28 36 -190 203 -267 273 -76 71 -189 163 -279 228 l-72 52 -43 -19 c-57 -24
-140 -62 -402 -185 l-99 -45 -86 43 c-184 92 -414 179 -589 221 -40 10 -77 23
-81 29 -5 6 -48 125 -96 265 -48 140 -88 256 -90 258 -2 2 -21 6 -42 8 -22 3
-59 8 -84 11 -99 13 -555 11 -680 -3z"/>
</g>
</svg>
