<?xml version="1.0" encoding="UTF-8" standalone="no"?>
<!-- Created with Inkscape (http://www.inkscape.org/) -->

<svg
   width="16"
   height="16"
   viewBox="0 0 4.2333333 4.2333333"
   version="1.1"
   id="svg1"
   inkscape:version="1.3 (0e150ed6c4, 2023-07-21)"
   sodipodi:docname="logo.svg"
   xmlns:inkscape="http://www.inkscape.org/namespaces/inkscape"
   xmlns:sodipodi="http://sodipodi.sourceforge.net/DTD/sodipodi-0.dtd"
   xmlns="http://www.w3.org/2000/svg"
   xmlns:svg="http://www.w3.org/2000/svg">
  <sodipodi:namedview
     id="namedview1"
     pagecolor="#505050"
     bordercolor="#eeeeee"
     borderopacity="1"
     inkscape:showpageshadow="0"
     inkscape:pageopacity="0"
     inkscape:pagecheckerboard="0"
     inkscape:deskcolor="#505050"
     inkscape:document-units="mm"
     inkscape:zoom="8.3170034"
     inkscape:cx="16.592515"
     inkscape:cy="11.362265"
     inkscape:window-width="2560"
     inkscape:window-height="1368"
     inkscape:window-x="0"
     inkscape:window-y="550"
     inkscape:window-maximized="1"
     inkscape:current-layer="layer1" />
  <defs
     id="defs1">
    <inkscape:path-effect
       effect="mirror_symmetry"
       start_point="2.1142835,0.03514801"
       end_point="2.1142835,4.2684813"
       center_point="2.1142835,2.1518147"
       id="path-effect9"
       is_visible="true"
       lpeversion="1.2"
       lpesatellites=""
       mode="vertical"
       discard_orig_path="false"
       fuse_paths="false"
       oposite_fuse="false"
       split_items="false"
       split_open="false"
       link_styles="false" />
    <inkscape:path-effect
       effect="mirror_symmetry"
       start_point="1.3059554,0.61056673"
       end_point="1.3059554,1.5027612"
       center_point="1.3059554,1.056664"
       id="path-effect1"
       is_visible="true"
       lpeversion="1.2"
       lpesatellites=""
       mode="free"
       discard_orig_path="false"
       fuse_paths="false"
       oposite_fuse="false"
       split_items="false"
       split_open="false"
       link_styles="false" />
  </defs>
  <g
     inkscape:label="Layer 1"
     inkscape:groupmode="layer"
     id="layer1">
    <path
       id="path6"
       style="fill:#ff6600;fill-opacity:0.999785;stroke:none;stroke-width:0.60267"
       d="M 2.1166666,0.16276102 A 2.0232271,1.9540214 0 0 0 1.8234214,0.18401068 L 1.7015901,0.51479698 A 1.7137824,1.6551614 0 0 0 1.2822635,0.67629437 L 0.95997703,0.51904691 A 2.0232271,1.9540214 0 0 0 0.54702541,0.88879093 L 0.69152302,1.2004525 A 1.7137824,1.6551614 0 0 0 0.46627671,1.679278 L 0.12344894,1.7968595 a 2.0232271,1.9540214 0 0 0 -0.0297495,0.3201614 2.0232271,1.9540214 0 0 0 0.0141664,0.1912469 l 0.330078,0.1211231 A 1.7137824,1.6551614 0 0 0 0.65044039,2.9677155 L 0.4981512,3.2807937 A 2.0232271,1.9540214 0 0 0 0.85656203,3.6399128 L 1.1703486,3.4947068 a 1.7137824,1.6551614 0 0 0 0.5319497,0.2245381 l 0.1133315,0.3286614 a 2.0232271,1.9540214 0 0 0 0.3010368,0.022666 2.0232271,1.9540214 0 0 0 0.2075383,-0.014166 L 2.441078,3.7383697 A 1.7137824,1.6551614 0 0 0 3.0091522,3.5265813 L 3.3229388,3.6795789 A 2.0232271,1.9540214 0 0 0 3.677808,3.3551675 L 3.5333103,3.0435059 A 1.7137824,1.6551614 0 0 0 3.7925561,2.4428489 L 4.1240507,2.3288092 A 2.0232271,1.9540214 0 0 0 4.1396339,2.1170209 2.0232271,1.9540214 0 0 0 4.1212175,1.8584834 L 3.7840563,1.7345271 A 1.7137824,1.6551614 0 0 0 3.530477,1.1813278 L 3.6792246,0.87604108 A 2.0232271,1.9540214 0 0 0 3.2896477,0.5254218 L 2.9609862,0.67700274 A 1.7137824,1.6551614 0 0 0 2.5041186,0.50488048 L 2.3929121,0.18117739 A 2.0232271,1.9540214 0 0 0 2.1166666,0.16276102 Z" />
    <rect
       style="fill:#f9f9f9;fill-opacity:0.999785;stroke:none;stroke-width:0.264583"
       id="rect6"
       width="2.2619815"
       height="0.50577402"
       x="0.98567593"
       y="2.5353241" />
    <path
       style="fill:#f9f9f9;fill-opacity:0.999785;stroke:none;stroke-width:0.264583"
       id="rect8"
       width="0.50279498"
       height="1.2995822"
       x="0.98870701"
       y="1.2234"
       inkscape:path-effect="#path-effect9"
       sodipodi:type="rect"
       d="M 0.98870701,1.2234 H 1.491502 V 2.5229822 H 0.98870701 Z m 2.25115309,0 h -0.502795 v 1.2995822 h 0.502795 z"
       transform="translate(0.00238313,-0.03514801)" />
    <rect
       style="fill:#f9f9f9;fill-opacity:0.999785;stroke:none;stroke-width:0.264583"
       id="rect9"
       width="0.43815845"
       height="0.60674953"
       x="1.8975874"
       y="1.8816805" />
  </g>
</svg>
